<svg viewBox="0 0 14 14" fill="none" xmlns="http://www.w3.org/2000/svg">
<path d="M9.59727 6.25581C10.5456 5.18282 11.0469 3.88951 11.0469 2.51562V1.09375H12.7969V0H1.20312V1.09375H2.95312V2.51562C2.95312 3.88951 3.45439 5.18282 4.40273 6.25581C4.67321 6.56182 4.94452 6.80955 5.17855 7C4.94452 7.19045 4.67321 7.43818 4.40273 7.74419C3.45439 8.81718 2.95312 10.1105 2.95312 11.4844V12.9062H1.20312V14H12.7969V12.9062H11.0469V11.4844C11.0469 10.1105 10.5456 8.81718 9.59727 7.74419C9.32679 7.43818 9.05548 7.19045 8.82145 7C9.05548 6.80955 9.32679 6.56182 9.59727 6.25581ZM4.04688 1.09375H9.95312V2.1875H4.04688V1.09375ZM9.95312 12.9062H4.04688V11.8125H9.95312V12.9062ZM7.60834 7.47745C7.61436 7.48084 8.21529 7.82288 8.80242 8.49666C9.38585 9.16617 9.74922 9.91107 9.88835 10.7188H4.11165C4.25078 9.9111 4.61415 9.1662 5.19758 8.49666C5.78471 7.82288 6.38564 7.48084 6.39021 7.47827C6.56403 7.38188 6.67261 7.19917 6.67261 7.00038C6.67261 6.80162 6.56551 6.61891 6.39168 6.52252C6.38567 6.51913 5.78473 6.17709 5.19761 5.50331C4.61418 4.8338 4.2508 4.0889 4.11168 3.28122H9.88837C9.74925 4.08887 9.38588 4.83377 8.80245 5.50331C8.21532 6.17709 7.61439 6.51913 7.60982 6.5217C7.436 6.61809 7.32741 6.8008 7.32741 6.99959C7.32741 7.19835 7.43452 7.38109 7.60834 7.47745Z" fill="#9295AD"/>
</svg>
