<svg width="22" height="16" viewBox="0 0 22 16" fill="none" xmlns="http://www.w3.org/2000/svg">
<path d="M0 2C0 0.895431 0.895431 0 2 0H20C21.1046 0 22 0.895431 22 2V14C22 15.1046 21.1046 16 20 16H2C0.89543 16 0 15.1046 0 14V2Z" fill="#1E9E1F"/>
<path d="M6.92704 11.152H10.063V13H4.53304V3.172H6.92704V11.152ZM10.8829 11.082C11.2002 10.83 11.3449 10.7133 11.3169 10.732C12.2316 9.976 12.9502 9.35533 13.4729 8.87C14.0049 8.38467 14.4529 7.876 14.8169 7.344C15.1809 6.812 15.3629 6.294 15.3629 5.79C15.3629 5.40733 15.2742 5.10867 15.0969 4.894C14.9196 4.67933 14.6536 4.572 14.2989 4.572C13.9442 4.572 13.6642 4.70733 13.4589 4.978C13.2629 5.23933 13.1649 5.61267 13.1649 6.098H10.8549C10.8736 5.30467 11.0416 4.642 11.3589 4.11C11.6856 3.578 12.1102 3.186 12.6329 2.934C13.1649 2.682 13.7529 2.556 14.3969 2.556C15.5076 2.556 16.3429 2.84067 16.9029 3.41C17.4722 3.97933 17.7569 4.72133 17.7569 5.636C17.7569 6.63467 17.4162 7.56333 16.7349 8.422C16.0536 9.27133 15.1856 10.102 14.1309 10.914H17.9109V12.86H10.8829V11.082Z" fill="white"/>
</svg>
