<svg width="22" height="16" viewBox="0 0 22 16" fill="none" xmlns="http://www.w3.org/2000/svg">
<path d="M0 2C0 0.895431 0.895431 0 2 0H20C21.1046 0 22 0.895431 22 2V14C22 15.1046 21.1046 16 20 16H2C0.89543 16 0 15.1046 0 14V2Z" fill="#0051FD"/>
<path d="M6.68778 11.152H9.82378V13H4.29378V3.172H6.68778V11.152ZM10.8117 5.664C10.849 4.66533 11.1757 3.89533 11.7917 3.354C12.4077 2.81267 13.243 2.542 14.2977 2.542C14.9977 2.542 15.595 2.66333 16.0897 2.906C16.5937 3.14867 16.9717 3.48 17.2237 3.9C17.485 4.32 17.6157 4.79133 17.6157 5.314C17.6157 5.93 17.4617 6.434 17.1537 6.826C16.8457 7.20867 16.4863 7.47 16.0757 7.61V7.666C16.6077 7.84333 17.0277 8.13733 17.3357 8.548C17.6437 8.95867 17.7977 9.486 17.7977 10.13C17.7977 10.7087 17.6623 11.222 17.3917 11.67C17.1303 12.1087 16.743 12.454 16.2297 12.706C15.7257 12.958 15.1237 13.084 14.4237 13.084C13.3037 13.084 12.4077 12.8087 11.7357 12.258C11.073 11.7073 10.723 10.8767 10.6857 9.766H13.0097C13.019 10.1767 13.1357 10.5033 13.3597 10.746C13.5837 10.9793 13.9103 11.096 14.3397 11.096C14.7037 11.096 14.9837 10.9933 15.1797 10.788C15.385 10.5733 15.4877 10.2933 15.4877 9.948C15.4877 9.5 15.343 9.178 15.0537 8.982C14.7737 8.77667 14.321 8.674 13.6957 8.674H13.2477V6.728H13.6957C14.1717 6.728 14.5543 6.64867 14.8437 6.49C15.1423 6.322 15.2917 6.028 15.2917 5.608C15.2917 5.272 15.1983 5.01067 15.0117 4.824C14.825 4.63733 14.5683 4.544 14.2417 4.544C13.887 4.544 13.621 4.65133 13.4437 4.866C13.2757 5.08067 13.1777 5.34667 13.1497 5.664H10.8117Z" fill="white"/>
</svg>
