<svg width="22" height="16" viewBox="0 0 22 16" fill="none" xmlns="http://www.w3.org/2000/svg">
<path d="M0 2C0 0.895431 0.895431 0 2 0H20C21.1046 0 22 0.895431 22 2V14C22 15.1046 21.1046 16 20 16H2C0.89543 16 0 15.1046 0 14V2Z" fill="#FFA100"/>
<path d="M6.37333 11.152H9.50933V13H3.97933V3.172H6.37333V11.152ZM17.6092 4.866H13.2412V6.798C13.4279 6.59267 13.6892 6.42467 14.0252 6.294C14.3612 6.16333 14.7252 6.098 15.1172 6.098C15.8172 6.098 16.3959 6.25667 16.8532 6.574C17.3199 6.89133 17.6605 7.302 17.8752 7.806C18.0899 8.31 18.1972 8.856 18.1972 9.444C18.1972 10.536 17.8892 11.404 17.2732 12.048C16.6572 12.6827 15.7892 13 14.6692 13C13.9225 13 13.2739 12.874 12.7232 12.622C12.1725 12.3607 11.7479 12.0013 11.4492 11.544C11.1505 11.0867 10.9872 10.5593 10.9592 9.962H13.2972C13.3532 10.2513 13.4885 10.494 13.7032 10.69C13.9179 10.8767 14.2119 10.97 14.5852 10.97C15.0239 10.97 15.3505 10.83 15.5652 10.55C15.7799 10.27 15.8872 9.89667 15.8872 9.43C15.8872 8.97267 15.7752 8.62267 15.5512 8.38C15.3272 8.13733 15.0005 8.016 14.5712 8.016C14.2539 8.016 13.9925 8.09533 13.7872 8.254C13.5819 8.40333 13.4465 8.604 13.3812 8.856H11.0712V2.766H17.6092V4.866Z" fill="white"/>
</svg>
