<svg width="22" height="16" viewBox="0 0 22 16" fill="none" xmlns="http://www.w3.org/2000/svg">
<path d="M0 2C0 0.895431 0.895431 0 2 0H20C21.1046 0 22 0.895431 22 2V14C22 15.1046 21.1046 16 20 16H2C0.89543 16 0 15.1046 0 14V2Z" fill="#FB4475"/>
<path d="M6.46903 11.152H9.60503V13H4.07503V3.172H6.46903V11.152ZM15.5629 5.538C15.4882 5.19267 15.3576 4.936 15.1709 4.768C14.9842 4.59067 14.7182 4.502 14.3729 4.502C13.8409 4.502 13.4582 4.73533 13.2249 5.202C12.9916 5.65933 12.8702 6.38733 12.8609 7.386C13.0662 7.05933 13.3602 6.80267 13.7429 6.616C14.1349 6.42933 14.5642 6.336 15.0309 6.336C15.9456 6.336 16.6782 6.62533 17.2289 7.204C17.7889 7.78267 18.0689 8.59 18.0689 9.626C18.0689 10.3073 17.9289 10.9047 17.6489 11.418C17.3782 11.9313 16.9769 12.3327 16.4449 12.622C15.9222 12.9113 15.3016 13.056 14.5829 13.056C13.1456 13.056 12.1469 12.608 11.5869 11.712C11.0269 10.8067 10.7469 9.50933 10.7469 7.82C10.7469 6.04667 11.0409 4.73067 11.6289 3.872C12.2262 3.004 13.1782 2.57 14.4849 2.57C15.1849 2.57 15.7729 2.71 16.2489 2.99C16.7342 3.26067 17.0982 3.62 17.3409 4.068C17.5929 4.516 17.7422 5.006 17.7889 5.538H15.5629ZM14.4569 8.226C14.0556 8.226 13.7196 8.34733 13.4489 8.59C13.1876 8.82333 13.0569 9.15933 13.0569 9.598C13.0569 10.046 13.1782 10.396 13.4209 10.648C13.6729 10.9 14.0276 11.026 14.4849 11.026C14.8956 11.026 15.2176 10.9047 15.4509 10.662C15.6936 10.41 15.8149 10.0693 15.8149 9.64C15.8149 9.20133 15.6982 8.856 15.4649 8.604C15.2316 8.352 14.8956 8.226 14.4569 8.226Z" fill="white"/>
</svg>
