<svg viewBox="0 0 40 40" fill="none" xmlns="http://www.w3.org/2000/svg">
<g clip-path="url(#clip0_14453_14979)">
<mask id="path-1-inside-1_14453_14979" fill="white">
<path d="M37.4463 0C38.8565 0 40 1.14348 40 2.55371V37.4463C40 38.8565 38.8565 40 37.4463 40H2.55371C1.14348 40 0 38.8565 0 37.4463V2.55371C0 1.14348 1.14348 0 2.55371 0H37.4463ZM20 3C10.6113 3 3.00016 10.6113 3 20C3 29.3888 10.6112 37 20 37C29.3887 36.9999 37 29.3887 37 20C36.9998 10.6114 29.3886 3.00015 20 3Z"/>
</mask>
<path d="M37.4463 0C38.8565 0 40 1.14348 40 2.55371V37.4463C40 38.8565 38.8565 40 37.4463 40H2.55371C1.14348 40 0 38.8565 0 37.4463V2.55371C0 1.14348 1.14348 0 2.55371 0H37.4463ZM20 3C10.6113 3 3.00016 10.6113 3 20C3 29.3888 10.6112 37 20 37C29.3887 36.9999 37 29.3887 37 20C36.9998 10.6114 29.3886 3.00015 20 3Z" fill="#3E444F"/>
<path d="M20 3L20 1.2977H20V3ZM3 20L1.2977 20V20H3ZM20 37V38.7023H20L20 37ZM37 20H38.7023V20L37 20ZM37.4463 0V1.7023C37.9164 1.7023 38.2977 2.08363 38.2977 2.55371H40H41.7023C41.7023 0.203319 39.7967 -1.7023 37.4463 -1.7023V0ZM40 2.55371H38.2977V37.4463H40H41.7023V2.55371H40ZM40 37.4463H38.2977C38.2977 37.9164 37.9164 38.2977 37.4463 38.2977V40V41.7023C39.7967 41.7023 41.7023 39.7967 41.7023 37.4463H40ZM37.4463 40V38.2977H2.55371V40V41.7023H37.4463V40ZM2.55371 40V38.2977C2.08363 38.2977 1.7023 37.9164 1.7023 37.4463H0H-1.7023C-1.7023 39.7967 0.203319 41.7023 2.55371 41.7023V40ZM0 37.4463H1.7023V2.55371H0H-1.7023V37.4463H0ZM0 2.55371H1.7023C1.7023 2.08363 2.08363 1.7023 2.55371 1.7023V0V-1.7023C0.203319 -1.7023 -1.7023 0.203319 -1.7023 2.55371H0ZM2.55371 0V1.7023H37.4463V0V-1.7023H2.55371V0ZM20 3V1.2977C9.6711 1.2977 1.29787 9.67119 1.2977 20L3 20L4.7023 20C4.70245 11.5515 11.5515 4.7023 20 4.7023V3ZM3 20H1.2977C1.2977 30.329 9.67103 38.7023 20 38.7023V37V35.2977C11.5513 35.2977 4.7023 28.4487 4.7023 20H3ZM20 37L20 38.7023C30.3288 38.7021 38.7023 30.3289 38.7023 20H37H35.2977C35.2977 28.4485 28.4486 35.2976 20 35.2977L20 37ZM37 20L38.7023 20C38.7021 9.67125 30.3288 1.29786 20 1.2977L20 3L20 4.7023C28.4484 4.70244 35.2976 11.5516 35.2977 20L37 20Z" fill="#D89C00" mask="url(#path-1-inside-1_14453_14979)"/>
<circle cx="20" cy="20.0004" r="17" fill="#11171B"/>
<path d="M18.0275 19.5135C18.0275 19.5135 18.7114 21.0451 18.0275 15.206C17.3436 9.36702 13.0023 8.22786 11.8748 7.96768C10.7474 7.7075 9.6873 8.43643 8.1248 9.68643C6.5623 10.9364 4.46701 14.619 4.06229 16.8739C3.65756 19.1289 4.12231 19.8688 4.7294 19.5183C5.33649 19.1678 7.43883 17.8707 10.6846 17.4321C16.0328 16.7093 18.0275 19.5135 18.0275 19.5135Z" fill="#D89C00"/>
<path fill-rule="evenodd" clip-rule="evenodd" d="M18.027 19.5138C18.027 19.5138 21.9586 20.2076 18.027 15.2063C15.695 13.6793 9.77047 12.4038 4.72889 19.5186C4.75727 19.5022 4.78893 19.4838 4.82382 19.4634C5.53508 19.0487 7.59009 17.8505 10.6841 17.4324C16.0323 16.7096 18.027 19.5138 18.027 19.5138Z" fill="#8F6F1D"/>
<path d="M21.9686 20.4875C21.9686 20.4875 21.2847 18.9559 21.9686 24.7949C22.6525 30.634 26.9938 31.7731 28.1213 32.0333C29.2487 32.2935 30.3088 31.5645 31.8713 30.3145C33.4338 29.0645 35.5291 25.382 35.9338 23.127C36.3385 20.8721 35.8738 20.1322 35.2667 20.4827C34.6596 20.8331 32.5573 22.1303 29.3115 22.5689C23.9633 23.2916 21.9686 20.4875 21.9686 20.4875Z" fill="#D89C00"/>
<path fill-rule="evenodd" clip-rule="evenodd" d="M21.9691 20.4882C21.9691 20.4882 18.0375 19.7944 21.9691 24.7956C24.3011 26.3227 30.2256 27.5981 35.2672 20.4833C35.2388 20.4997 35.2072 20.5182 35.1723 20.5385C34.461 20.9532 32.406 22.1515 29.312 22.5696C23.9638 23.2923 21.9691 20.4882 21.9691 20.4882Z" fill="#8F6F1D"/>
<path d="M19.513 21.972C19.513 21.972 21.0446 21.2881 15.2055 21.972C9.36653 22.6559 8.22738 26.9972 7.96719 28.1247C7.70701 29.2521 8.43594 30.3122 9.68594 31.8747C10.9359 33.4372 14.6185 35.5325 16.8734 35.9372C19.1284 36.3419 19.8683 35.8772 19.5178 35.2701C19.1673 34.663 17.8702 32.5607 17.4316 29.3149C16.7088 23.9667 19.513 21.972 19.513 21.972Z" fill="#D89C00"/>
<path fill-rule="evenodd" clip-rule="evenodd" d="M19.5123 21.972C19.5123 21.972 20.2061 18.0404 15.2049 21.972C13.6778 24.3041 12.4024 30.2286 19.5172 35.2701C19.5008 35.2417 19.4823 35.2101 19.462 35.1752C19.0472 34.4639 17.849 32.4089 17.4309 29.3149C16.7082 23.9667 19.5123 21.972 19.5123 21.972Z" fill="#8F6F1D"/>
<path d="M20.486 18.0295C20.486 18.0295 18.9545 18.7134 24.7935 18.0295C30.6325 17.3455 31.7716 13.0042 32.0318 11.8768C32.292 10.7493 31.5631 9.68925 30.3131 8.12675C29.0631 6.56425 25.3805 4.46896 23.1256 4.06424C20.8706 3.65952 20.1307 4.12426 20.4812 4.73135C20.8317 5.33844 22.1288 7.44078 22.5675 10.6866C23.2902 16.0347 20.486 18.0295 20.486 18.0295Z" fill="#D89C00"/>
<path fill-rule="evenodd" clip-rule="evenodd" d="M20.4847 18.0289C20.4847 18.0289 19.791 21.9605 24.7922 18.0289C26.3193 15.6969 27.5947 9.77242 20.4799 4.73084C20.4963 4.75923 20.5148 4.79088 20.5351 4.82577C20.9498 5.53703 22.1481 7.59204 22.5662 10.6861C23.2889 16.0342 20.4847 18.0289 20.4847 18.0289Z" fill="#8F6F1D"/>
<circle cx="19.8267" cy="19.7871" r="5.34815" fill="#D89C00"/>
<g style="mix-blend-mode:plus-lighter" filter="url(#filter0_f_14453_14979)">
<circle cx="19.8267" cy="19.7871" r="5.34815" fill="#D89C00"/>
</g>
<circle cx="19.8256" cy="19.787" r="4.19179" fill="black"/>
<circle cx="19.8255" cy="19.7874" r="3.61362" fill="#3E444F"/>
<circle cx="35.4688" cy="4.53125" r="1.875" fill="#1A1D29" stroke="#B2B9C4" stroke-width="0.3125"/>
<circle cx="35.4688" cy="35.4688" r="1.875" fill="#1A1D29" stroke="#B2B9C4" stroke-width="0.3125"/>
<circle cx="4.53125" cy="35.4688" r="1.875" fill="#1A1D29" stroke="#B2B9C4" stroke-width="0.3125"/>
<circle cx="4.53125" cy="4.53125" r="1.875" fill="#1A1D29" stroke="#B2B9C4" stroke-width="0.3125"/>
<rect x="0.859375" y="0.859375" width="38.2811" height="38.2811" rx="1.69408" stroke="#D89C00" stroke-width="1.71875"/>
</g>
<defs>
<filter id="filter0_f_14453_14979" x="13.2285" y="13.189" width="13.1963" height="13.1963" filterUnits="userSpaceOnUse" color-interpolation-filters="sRGB">
<feFlood flood-opacity="0" result="BackgroundImageFix"/>
<feBlend mode="normal" in="SourceGraphic" in2="BackgroundImageFix" result="shape"/>
<feGaussianBlur stdDeviation="0.625" result="effect1_foregroundBlur_14453_14979"/>
</filter>
<clipPath id="clip0_14453_14979">
<rect width="40" height="40" fill="white"/>
</clipPath>
</defs>
</svg>
