<svg viewBox="0 0 40 40" fill="none" xmlns="http://www.w3.org/2000/svg">
<g clip-path="url(#clip0_14453_14990)">
<path d="M-0.318359 39.0427V7.93155L4.28482 3.32837H7.14196V1.8998L8.72926 0.3125H20.3166V1.42361L21.4277 0.3125H32.8562V3.32837H38.888L40.3166 4.75694V35.8681L35.8721 40.3125H0.951482L-0.318359 39.0427Z" fill="#0C1115"/>
<path d="M36.8699 38.7441L38.7445 36.8696H36.8699V38.7441Z" fill="#6C7484"/>
<path d="M3.12843 35.6199L4.37812 36.8696H36.8699H38.7445L39.9941 35.6199V5.00261L38.7445 3.75293H4.37812L3.12843 5.00261V6.87714V35.6199Z" fill="#6C7484"/>
<path d="M3.12843 5.00261L1.25391 6.87714H3.12843V5.00261Z" fill="#6C7484"/>
<path d="M3.12843 5.00261L1.25391 6.87714H3.12843V5.00261Z" fill="#3F464E"/>
<path fill-rule="evenodd" clip-rule="evenodd" d="M4.37812 36.8696L3.12843 35.6199V6.87714V5.00261L4.37812 3.75293H38.7445L39.9941 5.00261L4.37812 36.8696Z" fill="#3F464E"/>
<path fill-rule="evenodd" clip-rule="evenodd" d="M4.37812 3.75293H38.7445L39.9941 5.00261L39.3693 5.31504L38.432 4.37777H4.69054L3.75328 5.31504L1.87875 7.18956L1.25391 6.87714L3.12843 5.00261L4.37812 3.75293Z" fill="#9295AD"/>
<path d="M7.14258 6.66093V3.48633H32.8569V4.9149L31.2696 6.66093H19.6823V5.54982L18.5711 6.66093H7.14258Z" fill="#12171B"/>
<path d="M1.25359 6.87793H35.6199L36.8696 8.12761V38.7449L35.6199 39.9946H1.25359L0.00390625 38.7449V8.12761L1.25359 6.87793Z" fill="#4F5360"/>
<rect width="13.0159" height="5.07937" transform="matrix(-1 0 0 1 33.0146 14.9141)" fill="#808791"/>
<path fill-rule="evenodd" clip-rule="evenodd" d="M19.9988 19.9934V14.9141L20.9629 15.549L32.0505 19.3585L33.0146 19.9934H19.9988Z" fill="#12171B"/>
<rect width="11.0876" height="3.80952" transform="matrix(-1 0 0 1 32.0508 15.5488)" fill="#1E2327"/>
<rect width="5.78483" height="3.80952" transform="matrix(-1 0 0 1 26.749 15.5488)" fill="#393D48"/>
<rect width="13.0159" height="5.07937" transform="matrix(-1 0 0 1 33.0146 9.19971)" fill="#808791"/>
<path fill-rule="evenodd" clip-rule="evenodd" d="M19.9988 14.2791V9.19971L20.9629 9.83463L32.0505 13.6442L33.0146 14.2791H19.9988Z" fill="#12171B"/>
<rect width="11.0876" height="3.80952" transform="matrix(-1 0 0 1 32.0508 9.83447)" fill="#1E2327"/>
<rect width="5.78483" height="3.80952" transform="matrix(-1 0 0 1 26.749 9.83447)" fill="#393D48"/>
<path d="M19.9789 21.5815H33.0358L34.6026 23.1484V36.2052L33.0358 37.772H19.9789L18.4121 36.2052V23.1484L19.9789 21.5815Z" fill="#12171B"/>
<path fill-rule="evenodd" clip-rule="evenodd" d="M32.3802 22.4546H20.7954L19.4053 23.8448V35.4295L20.7954 36.8197H32.3802L33.7704 35.4295V23.8448L32.3802 22.4546ZM20.4694 24.5827V34.6915L21.5334 35.7556H31.6422L32.7063 34.6915V24.5827L31.6422 23.5187H21.5334L20.4694 24.5827Z" fill="#9295AD"/>
<rect x="22.5967" y="25.6455" width="2.6602" height="6.38448" rx="1.3301" fill="#9295AD"/>
<rect x="27.917" y="25.6455" width="2.6602" height="6.38448" rx="1.3301" fill="#9295AD"/>
<g style="mix-blend-mode:plus-lighter" filter="url(#filter0_f_14453_14990)">
<path fill-rule="evenodd" clip-rule="evenodd" d="M32.3802 22.4546H20.7954L19.4053 23.8448V35.4295L20.7954 36.8197H32.3802L33.7704 35.4295V23.8448L32.3802 22.4546ZM20.4694 24.5827V34.6915L21.5334 35.7556H31.6422L32.7063 34.6915V24.5827L31.6422 23.5187H21.5334L20.4694 24.5827Z" fill="#9295AD"/>
<rect x="22.5967" y="25.6455" width="2.6602" height="6.38448" rx="1.3301" fill="#9295AD"/>
<rect x="27.917" y="25.6455" width="2.6602" height="6.38448" rx="1.3301" fill="#9295AD"/>
</g>
<circle cx="9.52319" cy="16.1843" r="6.98413" fill="#12171B"/>
<circle cx="9.52288" cy="16.185" r="5.2381" stroke="#4F5360" stroke-width="0.952381"/>
<circle cx="9.52331" cy="16.1844" r="3.01587" stroke="#4F5360" stroke-width="0.952381"/>
<path d="M2.18652 8.43945H3.44125L8.75241 14.9456C8.75241 14.9456 9.22104 15.5433 9.22104 16.0938C9.22104 16.6443 8.75241 17.2419 8.75241 17.2419L3.44125 23.7481H2.18652L7.54232 17.1872C7.54232 17.1872 8.12253 16.5624 8.12253 16.0938C8.12253 15.6251 7.54232 15.0003 7.54232 15.0003L2.18652 8.43945Z" fill="#4F5360"/>
<path d="M16.8809 8.43945H15.6261L10.315 14.9456C10.315 14.9456 9.84634 15.5433 9.84634 16.0938C9.84634 16.6443 10.315 17.2419 10.315 17.2419L15.6261 23.7481H16.8809L11.5251 17.1872C11.5251 17.1872 10.9449 16.5624 10.9449 16.0938C10.9449 15.6251 11.5251 15.0003 11.5251 15.0003L16.8809 8.43945Z" fill="#4F5360"/>
<circle cx="9.52319" cy="30.7869" r="6.98413" fill="#12171B"/>
<circle cx="9.52288" cy="30.788" r="5.2381" stroke="#4F5360" stroke-width="0.952381"/>
<circle cx="9.52331" cy="30.787" r="3.01587" stroke="#4F5360" stroke-width="0.952381"/>
<path d="M2.18652 23.0425H3.44125L8.75241 29.5487C8.75241 29.5487 9.22104 30.1463 9.22104 30.6968C9.22104 31.2473 8.75241 31.845 8.75241 31.845L3.44125 38.3511H2.18652L7.54232 31.7903C7.54232 31.7903 8.12253 31.1654 8.12253 30.6968C8.12253 30.2282 7.54232 29.6033 7.54232 29.6033L2.18652 23.0425Z" fill="#4F5360"/>
<path d="M16.8809 23.0425H15.6261L10.315 29.5487C10.315 29.5487 9.84634 30.1463 9.84634 30.6968C9.84634 31.2473 10.315 31.845 10.315 31.845L15.6261 38.3511H16.8809L11.5251 31.7903C11.5251 31.7903 10.9449 31.1654 10.9449 30.6968C10.9449 30.2282 11.5251 29.6033 11.5251 29.6033L16.8809 23.0425Z" fill="#4F5360"/>
<path fill-rule="evenodd" clip-rule="evenodd" d="M35.6199 6.87793H1.25359L0.00390625 8.12761V38.7449L1.25359 39.9946H35.6199L36.8696 38.7449V8.12761L35.6199 6.87793ZM0.951249 8.4073V38.4073L1.58617 39.0422H35.237L36.0306 38.4073V8.4073L35.3957 7.77238H1.58617L0.951249 8.4073Z" fill="url(#paint0_linear_14453_14990)"/>
<path d="M35.6211 6.87714L38.7453 3.75293L39.995 5.00261L36.8708 8.12683L35.6211 6.87714Z" fill="#B9BCD3"/>
<path d="M19.9988 0.628418V4.68989L18.4367 6.252L7.50195 2.19052L9.06406 0.628418H19.9988Z" fill="#1E2327"/>
<path d="M10.0017 0.94043L9.06445 1.87769H10.939L11.8762 0.94043H10.0017Z" fill="#111717"/>
<path d="M16.2507 0.94043L15.3135 1.87769H17.188L18.1253 0.94043H16.2507Z" fill="#111717"/>
<path d="M13.1257 0.94043L12.1885 1.87769H14.063L15.0003 0.94043H13.1257Z" fill="#111717"/>
<path fill-rule="evenodd" clip-rule="evenodd" d="M19.9988 4.68989V0.628418L18.4367 2.50295V6.252L19.9988 4.68989Z" fill="#1E2327"/>
<path d="M19.6816 2.05728L20.3166 1.42236V1.89855L19.9991 2.21601V5.07316H19.6816V2.05728Z" fill="#12171B"/>
<path d="M18.4367 6.25206H7.50195V2.81543H18.4367V6.25206Z" fill="#1E2327"/>
<path d="M17.8086 6.25247V2.81584H18.4385L18.7509 2.50342V5.94005L18.4385 6.25247H17.8086Z" fill="#4F5270"/>
<path d="M18.4367 2.19052H7.50195V3.13283H18.4367L19.9988 1.57072V0.628418L18.4367 2.19052Z" fill="#797D9A"/>
<path d="M32.4969 0.628418V4.68989L30.9347 6.252L20 2.19052L21.5621 0.628418H32.4969Z" fill="#1E2327"/>
<path d="M22.4998 0.94043L21.5625 1.87769H23.437L24.3743 0.94043H22.4998Z" fill="#111717"/>
<path d="M28.7488 0.94043L27.8115 1.87769H29.6861L30.6233 0.94043H28.7488Z" fill="#111717"/>
<path d="M25.6238 0.94043L24.6865 1.87769H26.5611L27.4983 0.94043H25.6238Z" fill="#111717"/>
<path fill-rule="evenodd" clip-rule="evenodd" d="M32.4969 4.68989V0.628418L30.9347 2.50295V6.252L32.4969 4.68989Z" fill="#1E2327"/>
<path d="M30.9347 6.25206H20V2.81543H30.9347V6.25206Z" fill="#1E2327"/>
<path d="M30.3057 6.25247V2.81584H30.9355L31.248 2.50342V5.94005L30.9355 6.25247H30.3057Z" fill="#4F5270"/>
<path d="M30.9347 2.19052H20V3.13283H30.9347L32.4969 1.57072V0.628418L30.9347 2.19052Z" fill="#797D9A"/>
<circle cx="3.64927" cy="9.67711" r="1.42857" fill="#111717"/>
<circle cx="3.64912" cy="9.67695" r="0.793651" fill="#575D69"/>
<circle cx="3.64927" cy="23.3275" r="1.42857" fill="#111717"/>
<circle cx="3.64912" cy="23.3283" r="0.793651" fill="#575D69"/>
<circle cx="15.3954" cy="23.3275" r="1.42857" fill="#111717"/>
<circle cx="15.3962" cy="23.3283" r="0.793651" fill="#575D69"/>
<circle cx="3.64927" cy="37.2958" r="1.42857" fill="#111717"/>
<circle cx="3.64912" cy="37.2966" r="0.793651" fill="#575D69"/>
<circle cx="15.3954" cy="37.2958" r="1.42857" fill="#111717"/>
<circle cx="15.3962" cy="37.2966" r="0.793651" fill="#575D69"/>
<circle cx="15.3954" cy="9.67711" r="1.42857" fill="#111717"/>
<circle cx="15.3962" cy="9.67695" r="0.793651" fill="#575D69"/>
</g>
<defs>
<filter id="filter0_f_14453_14990" x="18.1354" y="21.1847" width="16.9049" height="16.9049" filterUnits="userSpaceOnUse" color-interpolation-filters="sRGB">
<feFlood flood-opacity="0" result="BackgroundImageFix"/>
<feBlend mode="normal" in="SourceGraphic" in2="BackgroundImageFix" result="shape"/>
<feGaussianBlur stdDeviation="0.634921" result="effect1_foregroundBlur_14453_14990"/>
</filter>
<linearGradient id="paint0_linear_14453_14990" x1="18.4368" y1="6.87793" x2="18.4368" y2="39.9946" gradientUnits="userSpaceOnUse">
<stop stop-color="#9295AD"/>
<stop offset="1" stop-color="#56606D"/>
</linearGradient>
<clipPath id="clip0_14453_14990">
<rect width="40" height="40" fill="white"/>
</clipPath>
</defs>
</svg>
