<svg viewBox="0 0 40 40" fill="none" xmlns="http://www.w3.org/2000/svg">
<g clip-path="url(#clip0_14453_15009)">
<path d="M0 38.75V8.125L4.53125 3.59375H7.34375V2.1875L8.90625 0.625H20.3125V1.71875L21.4062 0.625H32.6562V3.59375H38.5938L40 5V35.625L35.625 40H1.25L0 38.75Z" fill="#0C1115"/>
<path d="M36.6084 38.4576L38.4536 36.6124H36.6084V38.4576Z" fill="#921BDB"/>
<path d="M3.39407 35.3822L4.62423 36.6124H36.6084H38.4536L39.6838 35.3822V5.24334L38.4536 4.01318H4.62423L3.39407 5.24334V7.08858V35.3822Z" fill="#921BDB"/>
<path d="M3.39407 5.24334L1.54883 7.08858H3.39407V5.24334Z" fill="#921BDB"/>
<path d="M3.39407 5.24334L1.54883 7.08858H3.39407V5.24334Z" fill="#48096F"/>
<path fill-rule="evenodd" clip-rule="evenodd" d="M4.62423 36.6124L3.39407 35.3822V7.08858V5.24334L4.62423 4.01318H38.4536L39.6838 5.24334L4.62423 36.6124Z" fill="#48096F"/>
<path fill-rule="evenodd" clip-rule="evenodd" d="M4.62423 4.01318H38.4536L39.6838 5.24334L39.0687 5.55088L38.1461 4.62826H4.93176L4.00915 5.55088L2.16391 7.39612L1.54883 7.08858L3.39407 5.24334L4.62423 4.01318Z" fill="#8600D8"/>
<path d="M7.34375 6.875V3.75H32.6562V5.15625L31.0938 6.875H19.6875V5.78125L18.5938 6.875H7.34375Z" fill="#12171B"/>
<path d="M1.54852 7.08887H35.3779L36.608 8.31903V38.4579L35.3779 39.6881H1.54852L0.318359 38.4579V8.31903L1.54852 7.08887Z" fill="#63019F"/>
<rect width="12.8125" height="5" transform="matrix(-1 0 0 1 32.8125 15)" fill="#808791"/>
<path fill-rule="evenodd" clip-rule="evenodd" d="M20 20V15L20.9491 15.625L31.8634 19.375L32.8125 20H20Z" fill="#12171B"/>
<rect width="10.9144" height="3.75" transform="matrix(-1 0 0 1 31.8633 15.625)" fill="#1E2327"/>
<rect width="5.69444" height="3.75" transform="matrix(-1 0 0 1 26.6426 15.625)" fill="#393D48"/>
<rect width="12.8125" height="5" transform="matrix(-1 0 0 1 32.8125 9.375)" fill="#808791"/>
<path fill-rule="evenodd" clip-rule="evenodd" d="M20 14.375V9.375L20.9491 10L31.8634 13.75L32.8125 14.375H20Z" fill="#12171B"/>
<rect width="10.9144" height="3.75" transform="matrix(-1 0 0 1 31.8633 10)" fill="#1E2327"/>
<rect width="5.69444" height="3.75" transform="matrix(-1 0 0 1 26.6426 10)" fill="#393D48"/>
<path d="M19.9798 21.5625H32.8327L34.375 23.1048V35.9577L32.8327 37.5H19.9798L18.4375 35.9577V23.1048L19.9798 21.5625Z" fill="#12171B"/>
<path fill-rule="evenodd" clip-rule="evenodd" d="M32.1862 22.4219H20.7825L19.4141 23.7903V35.1941L20.7825 36.5625H32.1862L33.5547 35.1941V23.7903L32.1862 22.4219ZM20.4615 24.5168V34.4676L21.509 35.515H31.4598L32.5072 34.4676V24.5168L31.4598 23.4693H21.509L20.4615 24.5168Z" fill="#A963FF"/>
<rect x="22.5566" y="25.564" width="2.61863" height="6.28472" rx="1.30932" fill="#A963FF"/>
<rect x="27.7939" y="25.564" width="2.61863" height="6.28472" rx="1.30932" fill="#A963FF"/>
<g style="mix-blend-mode:plus-lighter" filter="url(#filter0_f_14453_15009)">
<path fill-rule="evenodd" clip-rule="evenodd" d="M32.1862 22.4219H20.7825L19.4141 23.7903V35.1941L20.7825 36.5625H32.1862L33.5547 35.1941V23.7903L32.1862 22.4219ZM20.4615 24.5168V34.4676L21.509 35.515H31.4598L32.5072 34.4676V24.5168L31.4598 23.4693H21.509L20.4615 24.5168Z" fill="#6441FF"/>
<rect x="22.5566" y="25.564" width="2.61863" height="6.28472" rx="1.30932" fill="#6441FF"/>
<rect x="27.7939" y="25.564" width="2.61863" height="6.28472" rx="1.30932" fill="#6441FF"/>
</g>
<circle cx="9.6875" cy="16.25" r="6.875" fill="#12171B"/>
<circle cx="9.6875" cy="16.25" r="5.15625" stroke="#57008C" stroke-width="0.9375"/>
<circle cx="9.6875" cy="16.25" r="2.96875" stroke="#57008C" stroke-width="0.9375"/>
<path d="M2.46582 8.62598H3.70094L8.92911 15.0305C8.92911 15.0305 9.39042 15.6188 9.39042 16.1607C9.39042 16.7026 8.92911 17.2909 8.92911 17.2909L3.70094 23.6954H2.46582L7.73793 17.2371C7.73793 17.2371 8.30907 16.622 8.30907 16.1607C8.30907 15.6994 7.73793 15.0843 7.73793 15.0843L2.46582 8.62598Z" fill="#57008C"/>
<path d="M16.9287 8.62598H15.6936L10.4654 15.0305C10.4654 15.0305 10.0041 15.6188 10.0041 16.1607C10.0041 16.7026 10.4654 17.2909 10.4654 17.2909L15.6936 23.6954H16.9287L11.6566 17.2371C11.6566 17.2371 11.0855 16.622 11.0855 16.1607C11.0855 15.6994 11.6566 15.0843 11.6566 15.0843L16.9287 8.62598Z" fill="#57008C"/>
<circle cx="9.6875" cy="30.625" r="6.875" fill="#12171B"/>
<circle cx="9.6875" cy="30.625" r="5.15625" stroke="#57008C" stroke-width="0.9375"/>
<circle cx="9.6875" cy="30.625" r="2.96875" stroke="#57008C" stroke-width="0.9375"/>
<path d="M2.46582 23.001H3.70094L8.92911 29.4055C8.92911 29.4055 9.39042 29.9938 9.39042 30.5357C9.39042 31.0776 8.92911 31.6659 8.92911 31.6659L3.70094 38.0704H2.46582L7.73793 31.6121C7.73793 31.6121 8.30907 30.997 8.30907 30.5357C8.30907 30.0744 7.73793 29.4593 7.73793 29.4593L2.46582 23.001Z" fill="#57008C"/>
<path d="M16.9287 23.001H15.6936L10.4654 29.4055C10.4654 29.4055 10.0041 29.9938 10.0041 30.5357C10.0041 31.0776 10.4654 31.6659 10.4654 31.6659L15.6936 38.0704H16.9287L11.6566 31.6121C11.6566 31.6121 11.0855 30.997 11.0855 30.5357C11.0855 30.0744 11.6566 29.4593 11.6566 29.4593L16.9287 23.001Z" fill="#57008C"/>
<path fill-rule="evenodd" clip-rule="evenodd" d="M35.3779 7.08887H1.54852L0.318359 8.31903V38.4579L1.54852 39.6881H35.3779L36.608 38.4579V8.31903L35.3779 7.08887ZM1.2509 8.59434V38.1256L1.8759 38.7506H35.0009L35.7822 38.1256V8.59434L35.1572 7.96934H1.8759L1.2509 8.59434Z" fill="url(#paint0_linear_14453_15009)"/>
<path d="M35.3779 7.08858L38.4533 4.01318L39.6835 5.24334L36.6081 8.31874L35.3779 7.08858Z" fill="#A819FF"/>
<path d="M20.0018 0.9375V4.93552L18.4641 6.47321L7.7002 2.4752L9.23789 0.9375H20.0018Z" fill="#350354"/>
<path d="M10.1599 1.24561L9.2373 2.16822H11.0825L12.0052 1.24561H10.1599Z" fill="#111717"/>
<path d="M16.3113 1.24561L15.3887 2.16822H17.2339L18.1565 1.24561H16.3113Z" fill="#111717"/>
<path d="M13.2351 1.24561L12.3125 2.16822H14.1577L15.0804 1.24561H13.2351Z" fill="#111717"/>
<path fill-rule="evenodd" clip-rule="evenodd" d="M20.0018 4.93552V0.9375L18.4641 2.78274V6.47321L20.0018 4.93552Z" fill="#350354"/>
<path d="M19.6885 2.34375L20.3135 1.71875V2.1875L20.001 2.5V5.3125H19.6885V2.34375Z" fill="#12171B"/>
<path d="M18.4641 6.47278H7.7002V3.08984H18.4641V6.47278Z" fill="#350354"/>
<path d="M17.8438 6.47319V3.09025H18.4638L18.7713 2.78271V6.16565L18.4638 6.47319H17.8438Z" fill="#550089"/>
<path d="M18.4641 2.4752H7.7002V3.40278H18.4641L20.0018 1.86508V0.9375L18.4641 2.4752Z" fill="#8100D1"/>
<path d="M32.3016 0.9375V4.93552L30.7639 6.47321L20 2.4752L21.5377 0.9375H32.3016Z" fill="#350354"/>
<path d="M22.4597 1.24561L21.5371 2.16822H23.3823L24.305 1.24561H22.4597Z" fill="#111717"/>
<path d="M28.6111 1.24561L27.6885 2.16822H29.5337L30.4563 1.24561H28.6111Z" fill="#111717"/>
<path d="M25.5369 1.24561L24.6143 2.16822H26.4595L27.3821 1.24561H25.5369Z" fill="#111717"/>
<path fill-rule="evenodd" clip-rule="evenodd" d="M32.3016 4.93552V0.9375L30.7639 2.78274V6.47321L32.3016 4.93552Z" fill="#350354"/>
<path d="M30.7639 6.47278H20V3.08984H30.7639V6.47278Z" fill="#350354"/>
<path d="M30.1436 6.47319V3.09025H30.7636L31.0711 2.78271V6.16565L30.7636 6.47319H30.1436Z" fill="#550089"/>
<path d="M30.7639 2.4752H20V3.40278H30.7639L32.3016 1.86508V0.9375L30.7639 2.4752Z" fill="#8100D1"/>
<circle cx="3.90625" cy="9.84375" r="1.40625" fill="#111717"/>
<circle cx="3.90625" cy="9.84375" r="0.78125" fill="#575D69"/>
<circle cx="3.90625" cy="23.2812" r="1.40625" fill="#111717"/>
<circle cx="3.90625" cy="23.2812" r="0.78125" fill="#575D69"/>
<circle cx="15.4688" cy="23.2812" r="1.40625" fill="#111717"/>
<circle cx="15.4688" cy="23.2812" r="0.78125" fill="#575D69"/>
<circle cx="3.90625" cy="37.0312" r="1.40625" fill="#111717"/>
<circle cx="3.90625" cy="37.0312" r="0.78125" fill="#575D69"/>
<circle cx="15.4688" cy="37.0312" r="1.40625" fill="#111717"/>
<circle cx="15.4688" cy="37.0312" r="0.78125" fill="#575D69"/>
<circle cx="15.4688" cy="9.84375" r="1.40625" fill="#111717"/>
<circle cx="15.4688" cy="9.84375" r="0.78125" fill="#575D69"/>
</g>
<defs>
<filter id="filter0_f_14453_15009" x="17.4141" y="20.4219" width="18.1406" height="18.1406" filterUnits="userSpaceOnUse" color-interpolation-filters="sRGB">
<feFlood flood-opacity="0" result="BackgroundImageFix"/>
<feBlend mode="normal" in="SourceGraphic" in2="BackgroundImageFix" result="shape"/>
<feGaussianBlur stdDeviation="1" result="effect1_foregroundBlur_14453_15009"/>
</filter>
<linearGradient id="paint0_linear_14453_15009" x1="18.4632" y1="7.08887" x2="18.4632" y2="39.6881" gradientUnits="userSpaceOnUse">
<stop stop-color="#9E00FF"/>
<stop offset="1" stop-color="#3C0060"/>
</linearGradient>
<clipPath id="clip0_14453_15009">
<rect width="40" height="40" fill="white"/>
</clipPath>
</defs>
</svg>
